<mxfile host="app.diagrams.net" modified="2022-03-03T02:29:57.142Z" agent="5.0 (Windows NT 10.0; Win64; x64) AppleWebKit/537.36 (KHTML, like Gecko) Chrome/98.0.4758.102 Safari/537.36" etag="VWNZIun9hpg-yhpoJZVm" version="16.6.5" type="github">
  <diagram id="4TSo3se3y5pVcTdrk6Hy" name="Page-1">
    <mxGraphModel dx="1052" dy="545" grid="1" gridSize="10" guides="1" tooltips="1" connect="1" arrows="1" fold="1" page="1" pageScale="1" pageWidth="850" pageHeight="1100" math="0" shadow="0">
      <root>
        <mxCell id="0" />
        <mxCell id="1" parent="0" />
        <mxCell id="514gbTlxXRIf_x1GSxWM-1" value="Business&lt;br&gt;Applications" style="rounded=1;whiteSpace=wrap;html=1;fillColor=#ffffff;" vertex="1" parent="1">
          <mxGeometry x="200" y="120" width="340" height="60" as="geometry" />
        </mxCell>
        <mxCell id="514gbTlxXRIf_x1GSxWM-4" value="Contract Management&lt;br&gt;Portal" style="rounded=1;whiteSpace=wrap;html=1;fillColor=#ffffff;" vertex="1" parent="1">
          <mxGeometry x="200" y="230" width="480" height="60" as="geometry" />
        </mxCell>
        <mxCell id="514gbTlxXRIf_x1GSxWM-5" value="Contract Parties&lt;br&gt;Certification" style="rounded=1;whiteSpace=wrap;html=1;fillColor=#ffffff;" vertex="1" parent="1">
          <mxGeometry x="200" y="340" width="120" height="60" as="geometry" />
        </mxCell>
        <mxCell id="514gbTlxXRIf_x1GSxWM-6" value="Online Contract&lt;br&gt;Signoff" style="rounded=1;whiteSpace=wrap;html=1;fillColor=#ffffff;" vertex="1" parent="1">
          <mxGeometry x="410" y="450" width="120" height="60" as="geometry" />
        </mxCell>
        <mxCell id="514gbTlxXRIf_x1GSxWM-7" value="Signed Contracts&lt;br&gt;Verification Service" style="rounded=1;whiteSpace=wrap;html=1;fillColor=#ffffff;" vertex="1" parent="1">
          <mxGeometry x="570" y="600" width="120" height="60" as="geometry" />
        </mxCell>
        <mxCell id="514gbTlxXRIf_x1GSxWM-8" value="&lt;span style=&quot;font-size: 12px ; background-color: rgb(248 , 249 , 250)&quot;&gt;Contract Parties&lt;br&gt;Contract to sign&lt;br&gt;&lt;/span&gt;" style="shape=flexArrow;endArrow=classic;html=1;rounded=0;labelPosition=left;verticalLabelPosition=middle;align=right;verticalAlign=middle;" edge="1" parent="1">
          <mxGeometry width="50" height="50" relative="1" as="geometry">
            <mxPoint x="230" y="170" as="sourcePoint" />
            <mxPoint x="230" y="230" as="targetPoint" />
          </mxGeometry>
        </mxCell>
        <mxCell id="514gbTlxXRIf_x1GSxWM-9" value="&lt;span style=&quot;font-size: 12px ; background-color: rgb(248 , 249 , 250)&quot;&gt;Contract Parties Certifcation Request&lt;br&gt;&lt;/span&gt;" style="shape=flexArrow;endArrow=classic;html=1;rounded=0;labelPosition=left;verticalLabelPosition=middle;align=right;verticalAlign=middle;" edge="1" parent="1">
          <mxGeometry width="50" height="50" relative="1" as="geometry">
            <mxPoint x="230" y="280" as="sourcePoint" />
            <mxPoint x="230" y="340" as="targetPoint" />
          </mxGeometry>
        </mxCell>
        <mxCell id="514gbTlxXRIf_x1GSxWM-10" value="&lt;span style=&quot;font-size: 12px ; background-color: rgb(248 , 249 , 250)&quot;&gt;Contract Parties Certifcations&lt;br&gt;&lt;/span&gt;" style="shape=flexArrow;endArrow=classic;html=1;rounded=0;labelPosition=right;verticalLabelPosition=middle;align=left;verticalAlign=middle;" edge="1" parent="1">
          <mxGeometry width="50" height="50" relative="1" as="geometry">
            <mxPoint x="300" y="350" as="sourcePoint" />
            <mxPoint x="300" y="290" as="targetPoint" />
          </mxGeometry>
        </mxCell>
        <mxCell id="514gbTlxXRIf_x1GSxWM-11" value="&lt;span style=&quot;font-size: 12px ; background-color: rgb(248 , 249 , 250)&quot;&gt;Contract Parties Sign Request&lt;br&gt;&lt;/span&gt;" style="shape=flexArrow;endArrow=classic;html=1;rounded=0;labelPosition=left;verticalLabelPosition=middle;align=right;verticalAlign=middle;entryX=0.5;entryY=0;entryDx=0;entryDy=0;" edge="1" parent="1" target="514gbTlxXRIf_x1GSxWM-6">
          <mxGeometry x="0.625" width="50" height="50" relative="1" as="geometry">
            <mxPoint x="470" y="280" as="sourcePoint" />
            <mxPoint x="470" y="340" as="targetPoint" />
            <mxPoint as="offset" />
          </mxGeometry>
        </mxCell>
        <mxCell id="514gbTlxXRIf_x1GSxWM-12" value="&lt;span style=&quot;font-size: 12px ; background-color: rgb(248 , 249 , 250)&quot;&gt;Contracts Verify Request&lt;br&gt;&lt;/span&gt;" style="shape=flexArrow;endArrow=classic;html=1;rounded=0;labelPosition=left;verticalLabelPosition=middle;align=right;verticalAlign=middle;entryX=0.25;entryY=0;entryDx=0;entryDy=0;" edge="1" parent="1" target="514gbTlxXRIf_x1GSxWM-7">
          <mxGeometry x="0.625" width="50" height="50" relative="1" as="geometry">
            <mxPoint x="600" y="280" as="sourcePoint" />
            <mxPoint x="600" y="450" as="targetPoint" />
            <mxPoint as="offset" />
          </mxGeometry>
        </mxCell>
        <mxCell id="514gbTlxXRIf_x1GSxWM-13" value="&lt;span style=&quot;font-size: 12px ; background-color: rgb(248 , 249 , 250)&quot;&gt;Contracts Verify Result&lt;br&gt;&lt;/span&gt;" style="shape=flexArrow;endArrow=classic;html=1;rounded=0;labelPosition=right;verticalLabelPosition=middle;align=left;verticalAlign=middle;" edge="1" parent="1">
          <mxGeometry width="50" height="50" relative="1" as="geometry">
            <mxPoint x="660" y="610" as="sourcePoint" />
            <mxPoint x="660" y="290" as="targetPoint" />
          </mxGeometry>
        </mxCell>
        <mxCell id="514gbTlxXRIf_x1GSxWM-14" value="&lt;span style=&quot;font-size: 12px ; background-color: rgb(248 , 249 , 250)&quot;&gt;Contract Signed&lt;br&gt;&lt;/span&gt;" style="shape=flexArrow;endArrow=classic;html=1;rounded=0;labelPosition=right;verticalLabelPosition=middle;align=left;verticalAlign=middle;" edge="1" parent="1">
          <mxGeometry x="0.2941" width="50" height="50" relative="1" as="geometry">
            <mxPoint x="510" y="460" as="sourcePoint" />
            <mxPoint x="510" y="290" as="targetPoint" />
            <mxPoint as="offset" />
          </mxGeometry>
        </mxCell>
        <mxCell id="514gbTlxXRIf_x1GSxWM-15" value="&lt;span style=&quot;font-size: 12px ; background-color: rgb(248 , 249 , 250)&quot;&gt;Contract Signed&lt;br&gt;&lt;/span&gt;" style="shape=flexArrow;endArrow=classic;html=1;rounded=0;labelPosition=right;verticalLabelPosition=middle;align=left;verticalAlign=middle;" edge="1" parent="1">
          <mxGeometry width="50" height="50" relative="1" as="geometry">
            <mxPoint x="510" y="240" as="sourcePoint" />
            <mxPoint x="510" y="180" as="targetPoint" />
            <mxPoint as="offset" />
          </mxGeometry>
        </mxCell>
      </root>
    </mxGraphModel>
  </diagram>
</mxfile>
